# Blender 3.4.1
# www.blender.org
mtllib fighter.mtl
o cube
v -4.373505 0.063368 -3.239237
v -4.373505 0.141642 -3.239237
v 4.373505 0.063369 -3.239238
v 4.373505 0.141642 -3.239238
v -0.194278 -0.177865 4.130842
v -0.671006 -0.425514 1.053979
v -0.671006 0.117672 1.053979
v -0.194278 -0.106578 4.130842
v 0.194279 -0.177865 4.130842
v 0.671006 -0.425513 1.053979
v 0.194279 -0.106578 4.130842
v 0.671006 0.117672 1.053979
v 0.854660 -0.408556 -0.868102
v -0.854660 -0.408556 -0.868102
v -0.854660 0.408555 -0.868102
v 0.854660 0.408556 -0.868103
v -0.000000 0.063369 -4.527902
v -0.000000 0.177840 -4.527902
v 0.000000 -0.658237 1.053979
v 0.000000 -0.177865 4.130842
v 0.000000 0.459024 1.053979
v 0.000000 -0.106578 4.130842
v -0.000000 -0.408556 -0.868102
v -0.000000 0.866175 -0.868102
v 2.186752 0.177841 -3.239237
v 0.335503 -0.658237 1.053979
v 0.097139 -0.106578 4.130842
v 2.186752 0.063369 -3.239237
v 0.097139 -0.177865 4.130842
v 0.335503 0.459024 1.053979
v 0.427330 -0.408556 -0.868102
v 0.427330 0.866175 -0.868102
v -2.186753 0.063369 -3.239237
v -0.097139 -0.177865 4.130842
v -0.335503 0.459024 1.053979
v -0.427330 -0.408556 -0.868102
v -0.427330 0.866175 -0.868102
v -2.186753 0.177840 -3.239237
v -0.335503 -0.658237 1.053979
v -0.097139 -0.106578 4.130842
v -0.116185 0.560224 0.704145
v -0.116185 1.016527 -0.487327
v 0.219318 0.560224 0.704145
v 0.311145 1.016527 -0.487327
v -0.451688 0.560224 0.704145
v -0.543515 1.016527 -0.487327
vn -0.0000 -0.0000 -1.0000
vn -0.5588 -0.0000 0.8293
vn -0.1856 0.9826 0.0087
vn -0.0000 -0.0000 1.0000
vn 0.9955 -0.0000 0.0951
vn 0.9882 -0.0000 0.1531
vn 0.4678 -0.8697 0.1573
vn -0.6104 0.7736 0.1702
vn -0.9882 -0.0000 0.1531
vn -0.2915 -0.9555 -0.0454
vn -0.0000 -0.9808 -0.1952
vn 0.5588 -0.0000 0.8293
vn -0.7122 0.6800 0.1745
vn -0.9955 -0.0000 0.0951
vn -0.0000 0.9301 -0.3673
vn 0.0667 -0.9886 -0.1353
vn -0.0000 -0.9917 -0.1288
vn -0.0000 0.9835 0.1808
vn -0.0000 -0.9880 0.1543
vn 0.0960 0.9761 -0.1948
vn -0.5077 -0.0000 -0.8615
vn 0.1856 0.9826 0.0087
vn 0.6104 0.7736 0.1702
vn 0.2915 -0.9555 -0.0454
vn 0.7122 0.6800 0.1745
vn 0.5077 -0.0000 -0.8615
vn -0.4678 -0.8697 0.1573
vn -0.7358 -0.6625 -0.1403
vn -0.0667 -0.9886 -0.1353
vn -0.0960 0.9761 -0.1948
vn -0.0000 0.9339 0.3576
vn 0.7296 0.6467 0.2224
vn -0.0000 0.9606 0.2779
vt 0.375000 1.000000
vt 0.125000 0.750000
vt 0.375000 0.000000
vt 0.625000 1.000000
vt 0.875000 0.750000
vt 0.625000 0.000000
vt 0.375000 0.250000
vt 0.125000 0.500000
vt 0.625000 0.250000
vt 0.875000 0.500000
vt 0.474912 0.707865
vt 0.375000 0.781734
vt 0.343266 0.750000
vt 0.656734 0.750000
vt 0.625000 0.781734
vt 0.525088 0.707865
vt 0.474912 0.542135
vt 0.375000 0.468266
vt 0.343266 0.500000
vt 0.525088 0.542135
vt 0.625000 0.468266
vt 0.656734 0.500000
vt 0.375000 0.359133
vt 0.234133 0.500000
vt 0.234133 0.750000
vt 0.375000 0.890867
vt 0.765867 0.750000
vt 0.625000 0.890867
vt 0.625000 0.359133
vt 0.765867 0.500000
vt 0.375000 0.125000
vt 0.125000 0.625000
vt 0.625000 0.125000
vt 0.875000 0.625000
vt 0.343266 0.625000
vt 0.474912 0.625000
vt 0.656734 0.625000
vt 0.525088 0.625000
vt 0.234133 0.625000
vt 0.765867 0.625000
vt 0.875000 0.562500
vt 0.625000 0.187500
vt 0.343266 0.562500
vt 0.525088 0.583568
vt 0.125000 0.562500
vt 0.375000 0.187500
vt 0.474912 0.583568
vt 0.656734 0.562500
vt 0.234133 0.562500
vt 0.765867 0.562500
vt 0.375000 0.062500
vt 0.125000 0.687500
vt 0.474912 0.666432
vt 0.656734 0.687500
vt 0.234133 0.687500
vt 0.765867 0.687500
vt 0.625000 0.062500
vt 0.875000 0.687500
vt 0.343266 0.687500
vt 0.525088 0.666432
vt 0.656734 0.625000
vt 0.765867 0.625000
vt 0.656734 0.562500
vt 0.765867 0.562500
vt 0.656734 0.687500
vt 0.765867 0.687500
s 0
f 28/46/1 25/42/1 4/9/1 3/7/1
f 14/26/2 15/28/2 2/4/2 1/1/2
f 37/56/3 38/58/3 2/5/3 15/27/3
f 34/53/4 40/60/4 8/16/4 5/11/4
f 13/23/5 16/29/5 12/21/5 10/18/5
f 11/20/6 9/17/6 10/18/6 12/21/6
f 26/43/7 10/19/7 9/17/7 29/47/7
f 35/54/8 7/14/8 8/16/8 40/60/8
f 7/15/9 6/12/9 5/11/9 8/16/9
f 36/55/10 39/59/10 6/13/10 14/25/10
f 33/52/11 36/55/11 14/25/11 1/2/11
f 3/7/12 4/9/12 16/29/12 13/23/12
f 35/54/13 37/56/13 15/27/13 7/14/13
f 6/12/14 7/15/14 15/28/14 14/26/14
f 32/50/15 24/40/15 42/62/15 44/64/15
f 28/45/16 31/49/16 23/39/16 17/32/16
f 31/49/17 26/43/17 19/35/17 23/39/17
f 30/48/18 21/37/18 22/38/18 27/44/18
f 39/59/19 19/35/19 20/36/19 34/53/19
f 29/47/4 27/44/4 22/38/4 20/36/4
f 32/50/20 25/41/20 18/34/20 24/40/20
f 33/51/21 38/57/21 18/33/21 17/31/21
f 16/30/22 4/10/22 25/41/22 32/50/22
f 9/17/4 11/20/4 27/44/4 29/47/4
f 12/22/23 30/48/23 27/44/23 11/20/23
f 13/24/24 10/19/24 26/43/24 31/49/24
f 3/8/11 13/24/11 31/49/11 28/45/11
f 12/22/25 16/30/25 32/50/25 30/48/25
f 19/35/19 26/43/19 29/47/19 20/36/19
f 17/31/26 18/33/26 25/42/26 28/46/26
f 1/3/1 2/6/1 38/57/1 33/51/1
f 6/13/27 39/59/27 34/53/27 5/11/27
f 37/56/28 35/54/28 45/65/28 46/66/28
f 17/32/29 23/39/29 36/55/29 33/52/29
f 23/39/17 19/35/17 39/59/17 36/55/17
f 21/37/18 35/54/18 40/60/18 22/38/18
f 20/36/4 22/38/4 40/60/4 34/53/4
f 24/40/30 18/34/30 38/58/30 37/56/30
f 43/63/31 44/64/31 42/62/31 41/61/31
f 41/61/31 42/62/31 46/66/31 45/65/31
f 30/48/32 32/50/32 44/64/32 43/63/32
f 24/40/15 37/56/15 46/66/15 42/62/15
f 35/54/33 21/37/33 41/61/33 45/65/33
f 21/37/33 30/48/33 43/63/33 41/61/33
